<svg xmlns="http://www.w3.org/2000/svg" width="28" height="29" viewBox="0 0 28 29" fill="#000">
            <path
              d="M23.958 7.42835C23.9367 6.54432 23.576 5.70239 22.9507 5.07711C22.3255 4.45182 21.4835 4.09114 20.5995 4.06982H7.35852C6.47449 4.09114 5.63257 4.45182 5.00728 5.07711C4.382 5.70239 4.02131 6.54432 4 7.42835V20.7281C4.02131 21.6121 4.382 22.4541 5.00728 23.0793C5.63257 23.7046 6.47449 24.0653 7.35852 24.0866H14V16.5299H11.5651V13.1714H14V11.8952C14 9.66176 15.6793 7.64665 17.7364 7.64665H20.4232V11.0052H17.7364C17.5411 11.0526 17.3693 11.1685 17.2522 11.3318C17.1351 11.4951 17.0805 11.695 17.0982 11.8952V13.2218H20.4568V16.5803H17.0982V24.137H20.6415C21.5255 24.1157 22.3674 23.755 22.9927 23.1297C23.618 22.5044 23.9787 21.6625 24 20.7785V7.42835H23.958Z"
              />
          </svg>