<svg xmlns="http://www.w3.org/2000/svg" width="28" height="29" viewBox="0 0 28 29" fill="#000">
            <path
              d="M14 5.88142C16.6812 5.88142 17.0435 5.88142 17.9855 5.95388C19 6.02635 19.5072 6.09881 19.7971 6.3162C20.3043 6.46113 20.6667 6.75098 20.9565 7.04084C21.3188 7.40316 21.5362 7.69301 21.6812 8.20026C21.8261 8.56258 22.0435 9.14229 22.0435 10.0119C22.1159 11.0988 22.1159 11.3162 22.1159 13.9974C22.1159 16.6785 22.1159 17.0408 22.0435 17.9829C21.971 18.9974 21.8986 19.5046 21.6812 19.7945C21.5362 20.3017 21.2464 20.664 20.9565 20.9539C20.6667 21.2437 20.3043 21.5336 19.7971 21.6785C19.4348 21.8234 18.8551 22.0408 17.9855 22.0408C16.8986 22.1133 16.6812 22.1133 14 22.1133C11.3188 22.1133 10.9565 22.1133 10.0145 22.0408C9 21.9684 8.49275 21.8959 8.2029 21.6785C7.69565 21.5336 7.33333 21.2437 7.04348 20.9539C6.75362 20.664 6.46377 20.3017 6.31884 19.7945C6.17391 19.4321 5.95652 18.8524 5.95652 17.9829C5.81159 16.9684 5.81159 16.751 5.81159 14.0698C5.81159 11.3887 5.81159 11.0263 5.88406 10.0843C5.95652 9.14229 6.02899 8.56258 6.24638 8.27272C6.3913 7.76548 6.68116 7.40316 6.97101 7.1133C7.33333 6.75098 7.62319 6.53359 8.13043 6.38866C8.49275 6.24374 9.07246 6.02635 9.94203 6.02635C10.9565 5.88142 11.3188 5.88142 14 5.88142ZM14 4.06982C11.3188 4.06982 10.9565 4.06982 9.86957 4.14229C8.78261 4.21475 8.13043 4.43214 7.47826 4.64953C6.82609 4.86693 6.31884 5.22924 5.73913 5.80896C5.15942 6.38867 4.7971 6.89591 4.57971 7.54809C4.36232 8.20026 4.14493 8.85243 4.07246 9.93939C4 11.0263 4 11.3887 4 14.0698C4 16.751 4 17.1133 4.07246 18.2003C4.14493 19.2872 4.28986 19.9394 4.57971 20.5916C4.7971 21.2437 5.15942 21.751 5.73913 22.3307C6.31884 22.9104 6.82609 23.2727 7.47826 23.4901C8.13043 23.7075 8.78261 23.9249 9.86957 23.9974C10.9565 24.0698 11.3188 24.0698 14 24.0698C16.6812 24.0698 17.0435 24.0698 18.1304 23.9974C19.2174 23.9249 19.8696 23.78 20.5217 23.4901C21.1739 23.2003 21.6812 22.9104 22.2609 22.3307C22.8406 21.751 23.2029 21.2437 23.4203 20.5916C23.6377 19.9394 23.8551 19.2872 23.9275 18.2003C24 17.1133 24 16.751 24 14.0698C24 11.3887 24 11.0263 23.9275 9.93939C23.8551 8.85243 23.7101 8.20026 23.4203 7.54809C23.2029 6.89591 22.8406 6.38867 22.2609 5.80896C21.6812 5.30171 21.1739 4.93939 20.5217 4.64953C19.8696 4.43214 19.2174 4.21475 18.1304 4.14229C17.0435 4.06982 16.6812 4.06982 14 4.06982Z"
              />
            <path
              d="M14 8.9249C11.1739 8.9249 8.92754 11.1713 8.92754 13.9974C8.92754 16.8234 11.1739 19.0698 14 19.0698C16.8261 19.0698 19.0725 16.8234 19.0725 13.9974C19.0725 11.1713 16.8261 8.9249 14 8.9249ZM14 17.4032C12.1884 17.4032 10.6667 15.8814 10.6667 14.0698C10.6667 12.2582 12.1884 10.7365 14 10.7365C15.8116 10.7365 17.3333 12.2582 17.3333 14.0698C17.3333 15.8814 15.8116 17.4032 14 17.4032Z"
              />
            <path
              d="M19.3623 9.86693C20.0026 9.86693 20.5217 9.34784 20.5217 8.70751C20.5217 8.06718 20.0026 7.54809 19.3623 7.54809C18.722 7.54809 18.2029 8.06718 18.2029 8.70751C18.2029 9.34784 18.722 9.86693 19.3623 9.86693Z"
              />
          </svg>