<svg xmlns="http://www.w3.org/2000/svg" width="28" height="28" viewBox="0 0 28 28" fill="#000">
    <path
              d="M14.0339 4C8.47458 4 4 7.66102 4 12.1356C4 16.1356 7.52542 19.5254 12.339 20.1356C12.678 20.2034 13.0847 20.339 13.2203 20.6102C13.3559 20.8814 13.2881 21.2881 13.2203 21.4915C13.2203 21.4915 13.0847 22.1695 13.0847 22.3729C13.0169 22.6441 12.8814 23.3898 13.9661 22.9153C15.0508 22.4407 19.7288 19.5254 21.8305 17.0847C22.5763 16.2712 23.1186 15.4576 23.4576 14.6441C23.7966 13.8305 24 12.9492 24 12.0678C24 7.66102 19.5254 4 14.0339 4ZM10.5085 14.5085C10.5085 14.6441 10.4407 14.7119 10.3051 14.7119H7.52542C7.45763 14.7119 7.45763 14.7119 7.38983 14.6441C7.38983 14.5763 7.32203 14.5763 7.32203 14.5085V10.1695C7.32203 10.0339 7.38983 9.9661 7.52542 9.9661H8.20339C8.33898 9.9661 8.40678 10.0339 8.40678 10.1695V13.6271H10.3051C10.4407 13.6271 10.5085 13.6949 10.5085 13.8305V14.5085ZM12.1356 14.5085C12.1356 14.6441 12.0678 14.7119 11.9322 14.7119H11.2542C11.1186 14.7119 11.0508 14.6441 11.0508 14.5085V10.1695C11.0508 10.0339 11.1186 9.9661 11.2542 9.9661H11.9322C12.0678 9.9661 12.1356 10.0339 12.1356 10.1695V14.5085ZM17.0169 14.5085C17.0169 14.6441 16.9492 14.7119 16.8136 14.7119H16.1356C16.1356 14.7119 16.1356 14.7119 16.0678 14.7119C16.0678 14.7119 16 14.7119 16 14.6441L14.0339 11.9322V14.5085C14.0339 14.6441 13.9661 14.7119 13.8305 14.7119H13.1525C13.0169 14.7119 12.9492 14.6441 12.9492 14.5085V10.1695C12.9492 10.0339 13.0169 9.9661 13.1525 9.9661H13.8305L15.7966 12.678V10.1017C15.7966 9.9661 15.8644 9.8983 16 9.8983H16.678C16.8136 9.8983 16.8814 9.9661 16.8814 10.1017V14.5085H17.0169ZM20.8814 10.8475C20.8814 10.9831 20.8136 11.0508 20.678 11.0508H18.7797V11.7966H20.678C20.8136 11.7966 20.8814 11.8644 20.8814 12V12.678C20.8814 12.8136 20.8136 12.8814 20.678 12.8814H18.7797V13.6271H20.678C20.8136 13.6271 20.8814 13.6949 20.8814 13.8305V14.5085C20.8814 14.6441 20.8136 14.7119 20.678 14.7119H17.8983C17.8305 14.7119 17.8305 14.7119 17.7627 14.6441C17.6949 14.5763 17.6949 14.5763 17.6949 14.5085V10.1695C17.6949 10.1017 17.6949 10.1017 17.7627 10.0339C17.8305 9.9661 17.8305 9.9661 17.8983 9.9661H20.678C20.8136 9.9661 20.8814 10.0339 20.8814 10.1695V10.8475Z"
              />
</svg>