<svg width="90" height="94" viewBox="0 0 90 94" fill="none" xmlns="http://www.w3.org/2000/svg">
<path opacity="0.1" d="M45 67.5C57.3916 67.5 68.5908 69.0072 76.6758 71.4326C80.7215 72.6463 83.9598 74.0823 86.1748 75.6533C88.4025 77.2335 89.5 78.8785 89.5 80.5C89.5 82.1215 88.4025 83.7665 86.1748 85.3467C83.9598 86.9177 80.7215 88.3537 76.6758 89.5674C68.5908 91.9928 57.3916 93.5 45 93.5C32.6084 93.5 21.4092 91.9928 13.3242 89.5674C9.27852 88.3537 6.04019 86.9177 3.8252 85.3467C1.59748 83.7665 0.5 82.1215 0.5 80.5C0.5 78.8785 1.59748 77.2335 3.8252 75.6533C6.04019 74.0823 9.27852 72.6463 13.3242 71.4326C21.4092 69.0072 32.6084 67.5 45 67.5Z" stroke="white"/>
<path opacity="0.1" d="M45 55.5C57.393 55.5 68.5939 56.9519 76.6807 59.2881C80.7274 60.4571 83.9663 61.8394 86.1816 63.3525C88.4134 64.8769 89.5 66.4562 89.5 68C89.5 69.5438 88.4134 71.1231 86.1816 72.6475C83.9663 74.1606 80.7274 75.5429 76.6807 76.7119C68.5939 79.0481 57.393 80.5 45 80.5C32.607 80.5 21.4061 79.0481 13.3193 76.7119C9.27263 75.5429 6.03374 74.1606 3.81836 72.6475C1.5866 71.1231 0.5 69.5438 0.5 68C0.5 66.4562 1.5866 64.8769 3.81836 63.3525C6.03374 61.8394 9.27263 60.4571 13.3193 59.2881C21.4061 56.9519 32.607 55.5 45 55.5Z" stroke="white"/>
<path opacity="0.1" d="M45 42.5C57.393 42.5 68.5939 43.9519 76.6807 46.2881C80.7274 47.4571 83.9663 48.8394 86.1816 50.3525C88.4134 51.8769 89.5 53.4562 89.5 55C89.5 56.5438 88.4134 58.1231 86.1816 59.6475C83.9663 61.1606 80.7274 62.5429 76.6807 63.7119C68.5939 66.0481 57.393 67.5 45 67.5C32.607 67.5 21.4061 66.0481 13.3193 63.7119C9.27263 62.5429 6.03374 61.1606 3.81836 59.6475C1.5866 58.1231 0.5 56.5438 0.5 55C0.5 53.4562 1.5866 51.8769 3.81836 50.3525C6.03374 48.8394 9.27263 47.4571 13.3193 46.2881C21.4061 43.9519 32.607 42.5 45 42.5Z" stroke="white"/>
<path d="M45 28.5C57.3916 28.5 68.5908 30.0072 76.6758 32.4326C80.7215 33.6463 83.9598 35.0823 86.1748 36.6533C88.4025 38.2335 89.5 39.8785 89.5 41.5C89.5 43.1215 88.4025 44.7665 86.1748 46.3467C83.9598 47.9177 80.7215 49.3537 76.6758 50.5674C68.5908 52.9928 57.3916 54.5 45 54.5C32.6084 54.5 21.4092 52.9928 13.3242 50.5674C9.27852 49.3537 6.04019 47.9177 3.8252 46.3467C1.59748 44.7665 0.5 43.1215 0.5 41.5C0.5 39.8785 1.59748 38.2335 3.8252 36.6533C6.04019 35.0823 9.27852 33.6463 13.3242 32.4326C21.4092 30.0072 32.6084 28.5 45 28.5Z" stroke="white"/>
<circle cx="45" cy="6" r="6" fill="#D9D9D9"/>
</svg>
