<svg width="115" height="115" viewBox="0 0 115 115" fill="none" xmlns="http://www.w3.org/2000/svg">
<g opacity="0.5" filter="url(#filter0_f_1308_7589)">
<path d="M8 107H107V8H8V107ZM53.7623 22.2911C53.7623 24.7502 51.7657 26.7621 49.2899 26.7621H29.7072C28.0779 26.7621 26.7682 28.0874 26.7682 29.7002V31.2969C26.7682 32.9256 28.0939 34.235 29.7072 34.235H49.2899C51.7498 34.235 53.7623 36.231 53.7623 38.706V58.2984C53.7623 60.7574 51.7657 62.7694 49.2899 62.7694H29.7072C28.0779 62.7694 26.7682 64.0947 26.7682 65.7074V85.2998C26.7682 86.9286 28.0939 88.2379 29.7072 88.2379H40.2812C41.9105 88.2379 43.2202 86.9126 43.2202 85.2998V83.7031C43.2202 82.0744 41.8945 80.765 40.2812 80.765H38.6839C36.2241 80.765 34.2115 78.769 34.2115 76.294V74.6973C34.2115 72.2382 36.2081 70.2263 38.6839 70.2263H49.274C51.7338 70.2263 53.7464 72.2223 53.7464 74.6973V94.2897C53.7464 96.7487 51.7498 98.7607 49.274 98.7607H20.7144C18.2546 98.7607 16.242 96.7487 16.242 94.2897V56.7016C16.242 54.2426 18.2546 52.2306 20.7144 52.2306H40.2812C41.9105 52.2306 43.2202 50.9053 43.2202 49.2926V47.6958C43.2202 46.0671 41.8945 44.7577 40.2812 44.7577H20.7144C18.2546 44.7577 16.242 42.7618 16.242 40.2868V20.7103C16.242 18.2513 18.2546 16.2394 20.7144 16.2394H49.2899C51.7498 16.2394 53.7623 18.2353 53.7623 20.7103V22.3071V22.2911ZM98.758 40.3027C98.758 42.7618 96.7614 44.7737 94.2856 44.7737H74.7188C73.0895 44.7737 71.7798 46.099 71.7798 47.7118V49.3086C71.7798 50.9373 73.1055 52.2466 74.7188 52.2466H94.2856C96.7454 52.2466 98.758 54.2426 98.758 56.7176V94.3056C98.758 96.7647 96.7614 98.7766 94.2856 98.7766H65.7101C63.2502 98.7766 61.2377 96.7647 61.2377 94.3056V74.7132C61.2377 72.2542 63.2343 70.2423 65.7101 70.2423H76.3001C78.7599 70.2423 80.7725 72.2382 80.7725 74.7132V76.31C80.7725 78.769 78.7599 80.781 76.3001 80.781H74.7028C73.0736 80.781 71.7638 82.1063 71.7638 83.719V85.3158C71.7638 86.9445 73.0895 88.2539 74.7028 88.2539H85.2769C86.9061 88.2539 88.2159 86.9285 88.2159 85.3158V65.7234C88.2159 64.0947 86.8901 62.7853 85.2769 62.7853H65.7101C63.2502 62.7853 61.2377 60.7894 61.2377 58.3144V38.7219C61.2377 36.2629 63.2343 34.251 65.7101 34.251H85.2769C86.9061 34.251 88.2159 32.9256 88.2159 31.3129V29.7161C88.2159 28.0874 86.8901 26.7781 85.2769 26.7781H65.7101C63.2502 26.7781 61.2377 24.7821 61.2377 22.3071V20.7103C61.2377 18.2513 63.2343 16.2394 65.7101 16.2394H94.2856C96.7454 16.2394 98.758 18.2353 98.758 20.7103V40.3027Z" fill="#B0B0B0"/>
</g>
<defs>
<filter id="filter0_f_1308_7589" x="0" y="0" width="115" height="115" filterUnits="userSpaceOnUse" color-interpolation-filters="sRGB">
<feFlood flood-opacity="0" result="BackgroundImageFix"/>
<feBlend mode="normal" in="SourceGraphic" in2="BackgroundImageFix" result="shape"/>
<feGaussianBlur stdDeviation="4" result="effect1_foregroundBlur_1308_7589"/>
</filter>
</defs>
</svg>
