<svg width="43" height="44" viewBox="0 0 43 44" fill="none" xmlns="http://www.w3.org/2000/svg">
<circle cx="21.5" cy="22" r="21.5" fill="#323333"/>
<g clip-path="url(#clip0_4507_6285)">
<path d="M32.9309 17.2586C32.8749 16.0345 32.6805 15.1985 32.3962 14.4672C32.1075 13.6998 31.6548 13.0047 31.0698 12.4302C30.4954 11.8452 29.8002 11.3923 29.0328 11.1035C28.3013 10.8194 27.4655 10.6251 26.2414 10.5695C25.015 10.5133 24.6231 10.5 21.5 10.5C18.3769 10.5 17.985 10.5133 16.7586 10.5691C15.5345 10.6251 14.6987 10.8195 13.9672 11.1038C13.1998 11.3925 12.5047 11.8452 11.9302 12.4302C11.3452 13.0046 10.8923 13.6996 10.6035 14.467C10.3194 15.1985 10.1251 16.0345 10.0695 17.2585C10.0133 18.485 10 18.8767 10 21.9998C10 25.1231 10.0133 25.515 10.0695 26.7414C10.1253 27.9653 10.3197 28.8013 10.604 29.5328C10.8926 30.3 11.3454 30.9953 11.9304 31.5696C12.5047 32.1546 13.2 32.6074 13.9673 32.896C14.6987 33.1805 15.5347 33.3747 16.7588 33.4307C17.9854 33.4867 18.3771 33.4998 21.5002 33.4998C24.6233 33.4998 25.0151 33.4867 26.2415 33.4307C27.4657 33.3747 28.3015 33.1805 29.033 32.896C30.5777 32.2987 31.7989 31.0776 32.3962 29.5328C32.6806 28.8013 32.8749 27.9653 32.9309 26.7414C32.9867 25.5148 33 25.1231 33 22C33 18.8767 32.9867 18.485 32.9309 17.2586ZM30.8608 26.6471C30.8097 27.7684 30.6223 28.3773 30.4649 28.7825C30.078 29.7855 29.2853 30.5781 28.2823 30.9651C27.8772 31.1225 27.2682 31.3099 26.147 31.3609C24.9346 31.4164 24.5708 31.428 21.5 31.428C18.429 31.428 18.0654 31.4164 16.8529 31.3609C15.7318 31.3099 15.1228 31.1225 14.7175 30.9651C14.2181 30.7806 13.7662 30.4867 13.3953 30.1047C13.0133 29.7338 12.7194 29.2821 12.5349 28.7825C12.3775 28.3773 12.1901 27.7684 12.1391 26.6471C12.0838 25.4346 12.072 25.0708 12.072 22.0002C12.072 18.9293 12.0838 18.5658 12.1391 17.353C12.1903 16.2318 12.3775 15.6228 12.5349 15.2177C12.7194 14.7181 13.0135 14.2662 13.3953 13.8953C13.7662 13.5133 14.2181 13.2194 14.7177 13.0351C15.1228 12.8775 15.7318 12.6903 16.853 12.6391C18.0656 12.5838 18.4293 12.572 21.5 12.572H21.4998C24.5705 12.572 24.9342 12.5838 26.147 12.6392C27.2682 12.6903 27.877 12.8777 28.2823 13.0351C28.7817 13.2195 29.2336 13.5135 29.6045 13.8953C29.9865 14.2662 30.2805 14.7181 30.4647 15.2177C30.6223 15.6228 30.8097 16.2318 30.8608 17.353C30.916 18.5656 30.9278 18.9293 30.9278 22C30.9278 25.0708 30.9162 25.4344 30.8608 26.6471Z" fill="white"/>
<path d="M21.499 16.0947C18.2376 16.0947 15.5938 18.7388 15.5938 22.0002C15.5938 25.2616 18.2376 27.9055 21.499 27.9055C24.7606 27.9055 27.4045 25.2616 27.4045 22.0002C27.4045 18.7388 24.7606 16.0947 21.499 16.0947ZM21.499 25.8335C19.3821 25.8333 17.6658 24.1171 17.6659 22C17.6659 19.8831 19.3821 18.1667 21.4992 18.1667C23.6163 18.1669 25.3325 19.8831 25.3325 22C25.3325 24.1171 23.6162 25.8335 21.499 25.8335Z" fill="white"/>
<path d="M29.0179 15.8616C29.0179 16.6237 28.4 17.2415 27.6379 17.2415C26.8757 17.2415 26.2578 16.6237 26.2578 15.8616C26.2578 15.0993 26.8757 14.4814 27.6379 14.4814C28.4 14.4814 29.0179 15.0993 29.0179 15.8616Z" fill="white"/>
</g>
<defs>
<clipPath id="clip0_4507_6285">
<rect width="23" height="23" fill="white" transform="translate(10 10.5)"/>
</clipPath>
</defs>
</svg>
