<svg width="34" height="45" viewBox="0 0 34 45" fill="none" xmlns="http://www.w3.org/2000/svg">
<path d="M7.86938 23.793C5.25403 24.8764 3.13834 26.888 1.97015 29.7111C0.800878 32.5331 0.886671 35.5623 1.96961 38.1771C3.05308 40.793 5.13424 42.9955 7.95679 44.1654C7.95679 40.7131 9.11689 37.5388 11.0502 34.9812C9.10448 32.2385 7.86938 28.2494 7.86938 23.793Z" stroke="#B0B0B0" stroke-miterlimit="10" stroke-linecap="round" stroke-linejoin="round"/>
<path d="M26.7555 23.793C29.3708 24.8764 31.486 26.888 32.6547 29.7111C33.8234 32.5331 33.7382 35.5623 32.6552 38.1771C31.5718 40.793 29.4901 42.9955 26.6681 44.1654C26.6681 40.7131 25.508 37.5388 23.5752 34.9812C25.522 32.2385 26.7555 28.2494 26.7555 23.793Z" stroke="#B0B0B0" stroke-miterlimit="10" stroke-linecap="round" stroke-linejoin="round"/>
<path d="M17.313 38.7705C16.2981 38.7705 15.3236 38.5115 14.4085 38.0421L13.2656 41.4695L21.3593 41.4695L20.217 38.041C19.3014 38.5115 18.3269 38.7705 17.313 38.7705Z" stroke="#B0B0B0" stroke-miterlimit="10" stroke-linecap="round" stroke-linejoin="round"/>
<path d="M17.3125 23.9316C19.5475 23.9316 21.3593 22.1198 21.3593 19.8847C21.3593 17.6497 19.5475 15.8379 17.3125 15.8379C15.0775 15.8379 13.2656 17.6497 13.2656 19.8847C13.2656 22.1198 15.0775 23.9316 17.3125 23.9316Z" stroke="#B0B0B0" stroke-miterlimit="10" stroke-linecap="round" stroke-linejoin="round"/>
<path d="M23.6109 9.90504C19.8014 12.4206 14.82 12.4195 11.0111 9.90234C8.99902 14.1089 7.86914 18.8194 7.86914 23.7938C7.86914 32.0661 12.0962 38.7704 17.3129 38.7704C22.5268 38.7704 26.7555 32.0661 26.7544 23.7938C26.7544 19.0391 25.7023 14.2859 23.6109 9.90504Z" stroke="#B0B0B0" stroke-miterlimit="10" stroke-linecap="round" stroke-linejoin="round"/>
<path d="M23.6105 9.90523C19.801 12.4208 14.8196 12.4197 11.0107 9.90253C12.5998 6.58088 14.7392 3.57272 17.3125 1C19.9786 3.66553 22.0738 6.68556 23.6105 9.90523Z" stroke="#B0B0B0" stroke-miterlimit="10" stroke-linecap="round" stroke-linejoin="round"/>
</svg>
